<svg id="Layer_1" data-name="Layer 1" xmlns="http://www.w3.org/2000/svg" viewBox="0 0 216.3 92.9"><defs><style>.cls-1{fill:#fff;}</style></defs><title>logo</title><path class="cls-1" d="M159.14,4.39v62.9h36.8v9.4h-46.5V4.39Z" transform="translate(-149.44 -4.39)"/><path class="cls-1" d="M208.69,44.44a21.25,21.25,0,0,1,8.2-7.95,24.13,24.13,0,0,1,11.85-2.9,23.56,23.56,0,0,1,11.75,2.9,20.8,20.8,0,0,1,8,7.9,22.24,22.24,0,0,1,2.85,11.2,22.45,22.45,0,0,1-2.85,11.25,20.45,20.45,0,0,1-8.05,8,24,24,0,0,1-11.9,2.9,24.58,24.58,0,0,1-11.7-2.75,20.21,20.21,0,0,1-8.15-7.75,22.36,22.36,0,0,1-2.95-11.6A21.7,21.7,0,0,1,208.69,44.44Zm8.2,18.45a13.39,13.39,0,0,0,4.8,5.2A13.15,13.15,0,0,0,238,65.89a14.44,14.44,0,0,0,3.8-10.2A14.64,14.64,0,0,0,238,45.44a12.47,12.47,0,0,0-9.6-4.15,12.21,12.21,0,0,0-6.8,2,13.93,13.93,0,0,0-4.75,5.25,15.69,15.69,0,0,0,0,14.4Z" transform="translate(-149.44 -4.39)"/><path class="cls-1" d="M307.54,35.29V77a18.93,18.93,0,0,1-2.9,10.3,20.22,20.22,0,0,1-8.25,7.3,27.53,27.53,0,0,1-12.55,2.7A25.71,25.71,0,0,1,273,95.19a37.56,37.56,0,0,1-9.15-6.2l5.5-6.4a27.54,27.54,0,0,0,6.8,4.85,17,17,0,0,0,7.5,1.65q6.9,0,10.65-3.3a11.55,11.55,0,0,0,3.85-8.9l.1-7.8a16.51,16.51,0,0,1-6.75,6.25,21.59,21.59,0,0,1-10.25,2.35,19.87,19.87,0,0,1-10.5-2.9,21.41,21.41,0,0,1-7.65-7.9,22,22,0,0,1-2.85-11.1,22.06,22.06,0,0,1,2.95-11.35,21.8,21.8,0,0,1,7.95-7.95,21,21,0,0,1,10.7-2.9,22.9,22.9,0,0,1,9.8,2.1,15.84,15.84,0,0,1,6.7,5.4l.7-5.8Zm-14.4,31.8a13.28,13.28,0,0,0,5.1-7.6v-8.2a13.61,13.61,0,0,0-5.3-7.25,15.25,15.25,0,0,0-9-2.75,14,14,0,0,0-10.2,4,13.66,13.66,0,0,0-4.1,10.2A14.36,14.36,0,0,0,276.74,68a13.9,13.9,0,0,0,7.2,1.95A15,15,0,0,0,293.14,67.09Z" transform="translate(-149.44 -4.39)"/><path class="cls-1" d="M323.09,44.44a21.25,21.25,0,0,1,8.2-7.95,24.13,24.13,0,0,1,11.85-2.9,23.56,23.56,0,0,1,11.75,2.9,20.8,20.8,0,0,1,8,7.9,22.24,22.24,0,0,1,2.85,11.2,22.45,22.45,0,0,1-2.85,11.25,20.45,20.45,0,0,1-8.05,8,24,24,0,0,1-11.9,2.9,24.58,24.58,0,0,1-11.7-2.75,20.21,20.21,0,0,1-8.15-7.75,22.36,22.36,0,0,1-2.95-11.6A21.7,21.7,0,0,1,323.09,44.44Zm8.2,18.45a13.39,13.39,0,0,0,4.8,5.2,13.15,13.15,0,0,0,16.35-2.2,14.44,14.44,0,0,0,3.8-10.2,14.64,14.64,0,0,0-3.8-10.25,12.47,12.47,0,0,0-9.6-4.15,12.21,12.21,0,0,0-6.8,2,13.93,13.93,0,0,0-4.75,5.25,15.69,15.69,0,0,0,0,14.4Z" transform="translate(-149.44 -4.39)"/></svg>